<?xml version="1.0" encoding="UTF-8"?><svg id="Layer_1" xmlns="http://www.w3.org/2000/svg" viewBox="0 0 724.64 122.89"><defs><style>.cls-1{fill:#1c3c3c;}</style></defs><path class="cls-1" d="M185.73,33.24c-3.2,0-6.22,1.24-8.47,3.5l-9.11,9.09c-2.46,2.45-3.72,5.86-3.46,9.35.02.19.04.38.06.58.33,2.68,1.5,5.09,3.41,6.99,1.31,1.31,2.76,2.14,4.52,2.72.09.53.14,1.06.14,1.6,0,2.41-.94,4.67-2.64,6.37l-.56.56c-3.04-1.04-5.58-2.56-7.87-4.84-3.04-3.04-5.06-6.87-5.82-11.08l-.1-.58-.46.38c-.31.25-.61.52-.89.8l-9.11,9.09c-4.67,4.66-4.67,12.25,0,16.9,2.34,2.33,5.4,3.5,8.48,3.5s6.14-1.17,8.47-3.5l9.11-9.09c4.67-4.66,4.67-12.24,0-16.9-1.24-1.24-2.73-2.18-4.41-2.78-.09-.55-.14-1.09-.14-1.63,0-2.62,1.04-5.1,2.93-6.99,3.05,1.04,5.75,2.72,8.04,5,3.04,3.03,5.05,6.86,5.82,11.08l.1.58.46-.37c.31-.25.61-.52.89-.8l9.11-9.09c4.67-4.66,4.68-12.25,0-16.9-2.26-2.25-5.27-3.5-8.48-3.5h-.01Z"/><path class="cls-1" d="M180.85,0H61.61C27.64,0,0,27.57,0,61.45s27.64,61.45,61.61,61.45h119.23c33.97,0,61.61-27.57,61.61-61.45S214.82,0,180.85,0ZM122.04,96.34c-1.97.41-4.18.48-5.68-1.09-.55,1.27-1.85.6-2.85.44-.09.26-.17.49-.26.74-3.32.22-5.81-3.16-7.39-5.71-3.14-1.7-6.71-2.73-9.92-4.5-.18,2.93.46,6.55-2.34,8.44-.14,5.62,8.53.66,9.32,4.85-.62.07-1.3-.1-1.79.37-2.26,2.19-4.86-1.66-7.46-.07-3.5,1.76-3.85,3.2-8.18,3.56-.24-.36-.14-.6.06-.82,1.22-1.41,1.31-3.08,3.39-3.68-2.14-.34-3.94.84-5.74,1.78-2.35.96-2.33-2.16-5.94.17-.4-.33-.21-.62.02-.87.92-1.12,2.13-1.28,3.49-1.22-6.7-3.72-9.85,4.55-12.95.44-.93.25-1.28,1.08-1.87,1.67-.51-.55-.12-1.22-.1-1.87-.6-.28-1.37-.42-1.19-1.38-1.18-.4-2.01.3-2.89.96-.79-.61.54-1.51.78-2.15.71-1.23,2.32-.25,3.14-1.14,2.33-1.32,5.58.82,8.24.46,2.05.26,4.59-1.84,3.56-3.94-2.19-2.8-1.81-6.45-1.85-9.79-.27-1.95-4.96-4.43-6.32-6.53-1.68-1.89-2.98-4.09-4.29-6.24-4.71-9.1-3.23-20.79-9.17-29.24-2.69,1.48-6.19.78-8.5-1.2-1.25,1.14-1.31,2.62-1.4,4.2-3-2.99-2.62-8.65-.23-11.98.98-1.31,2.15-2.4,3.46-3.35.3-.22.39-.42.39-.76,2.37-10.64,18.55-8.59,23.67-1.05,3.71,4.64,4.83,10.78,9.04,15.09,5.66,6.18,12.11,11.63,17.34,18.21,4.94,6.02,8.47,13.07,11.55,20.18,1.26,2.36,1.27,5.25,3.13,7.27.92,1.22,5.4,4.53,4.43,5.7.56,1.22,4.75,2.89,3.3,4.07h0ZM200.62,60.03l-9.11,9.09c-2.43,2.42-5.43,4.23-8.68,5.22l-.17.05-.06.16c-1.06,2.79-2.67,5.28-4.79,7.39l-9.11,9.09c-3.97,3.96-9.26,6.14-14.89,6.14s-10.92-2.18-14.89-6.14c-8.21-8.19-8.21-21.51,0-29.7l9.11-9.09c2.44-2.43,5.36-4.18,8.67-5.2l.17-.05.06-.16c1.06-2.79,2.67-5.28,4.8-7.41l9.11-9.09c3.97-3.96,9.26-6.14,14.89-6.14s10.92,2.18,14.89,6.14c3.97,3.96,6.16,9.24,6.16,14.85s-2.19,10.89-6.16,14.85h0Z"/><path class="cls-1" d="M84.97,85.34c-.8,3.11-1.06,8.4-5.11,8.55-.33,1.79,1.24,2.47,2.69,1.89,1.42-.65,2.1.52,2.58,1.68,2.2.32,5.45-.73,5.58-3.33-3.28-1.89-4.3-5.47-5.72-8.8h0Z"/><path class="cls-1" d="M299.54,32.21h-10.82v65.66h46.43v-10.46h-35.6v-55.2Z"/><path class="cls-1" d="M389.56,97.87h10.82v-.12h.14l.02-.48c0-.14.04-1.46-.16-3.48v-24.44c0-9.19,6.7-13.38,12.93-13.38,6.7,0,9.96,3.61,9.96,11.04v30.85h10.82v-32.29c0-12.26-7.79-19.89-20.33-19.89-5.33,0-10.08,1.51-13.82,4.39l-.1-3.49h-10.28v51.28h-.02Z"/><path class="cls-1" d="M478.15,50.36c-3.76-3.06-8.6-4.67-14.05-4.67-14.6,0-23.66,10.06-23.66,26.27s9.07,26.36,23.66,26.36c5.15,0,9.74-1.4,13.36-4.07-.31,7.95-5.29,12.67-13.45,12.67-6.86,0-10.75-2.19-11.54-6.49l-.1-.54-10.52,3.21.09.43c1.78,8.56,9.79,13.67,21.44,13.67,7.9,0,14.1-2.15,18.43-6.4,4.37-4.28,6.58-10.45,6.58-18.34v-45.87h-10.01l-.22,3.77h0ZM477.48,72.41c0,9.78-4.76,15.63-12.75,15.63-8.56,0-13.47-5.86-13.47-16.08s4.91-15.99,13.47-15.99c7.79,0,12.67,5.82,12.75,15.17v1.26Z"/><path class="cls-1" d="M541.72,77.05c-2.24,7.26-8,11.26-16.22,11.26-11.74,0-19.04-8.92-19.04-23.27s7.36-23.27,19.22-23.27c8.21,0,12.93,3.22,15.34,10.42l1.12,3.37,10.22-4.8-.96-2.7c-3.89-10.96-12.88-16.76-25.99-16.76-8.91,0-16.47,3.22-21.87,9.3-5.34,6.03-8.17,14.47-8.17,24.43,0,20.49,11.83,33.73,30.14,33.73,12.9,0,22.9-6.75,26.73-18.06l.98-2.89-10.5-3.99-1,3.22h0Z"/><path class="cls-1" d="M582.14,45.69c-5.17,0-9.77,1.42-13.38,4.11v-23.88h-10.82v71.96h10.82v-28.51c0-9.25,6.7-13.47,12.93-13.47,6.7,0,9.96,3.61,9.96,11.04v30.94h10.82v-32.38c0-12.03-7.98-19.79-20.33-19.79h0Z"/><path class="cls-1" d="M665.75,24.37c-4.02,0-6.94,2.92-6.94,6.94s2.92,6.94,6.94,6.94,6.94-2.92,6.94-6.94-2.92-6.94-6.94-6.94Z"/><path class="cls-1" d="M704.29,45.69c-5.33,0-10.08,1.51-13.82,4.39l-.1-3.49h-10.28v51.28h10.82v-28.51c0-9.19,6.7-13.38,12.93-13.38,6.7,0,9.96,3.61,9.96,11.04v30.85h10.82v-32.29c0-12.26-7.79-19.89-20.33-19.89h-.01Z"/><path class="cls-1" d="M671,46.59h-10.77v25.42c-2.99-2.51-6.51-4.41-10.48-5.65v-2.58c0-11.32-7.43-18.09-19.89-18.09-10.12,0-17.68,4.75-20.77,13.03l-.83,2.23,8.68,6.4,1.49-3.88c1.96-5.12,5.6-7.5,11.43-7.5s9.06,2.81,9.06,8.34v.29c-.35-.01-.7-.02-1.05-.03-11.59-.19-20.04,2.53-25.13,8.04-5.2,5.65-4.75,11.99-4.68,12.69l.05.49h.05c.81,7.9,7.71,12.97,17.74,12.97,5.52,0,10.63-1.54,14.48-4.35l.04,3.45h9.32v-16.04l-.2-.15c-1.32-.96-3.61-2.21-7.07-2.65-1.08-.14-2.12-.2-3.07-.18h-.48v1.47c0,3.39-3.9,8.17-12.57,8.17-6.4,0-7.36-2.69-7.36-4.3v-.17c.05-.72.35-2.48,1.94-4.12,2.02-2.09,6.57-4.53,16.76-4.37,7.38.12,13.05,2.18,16.84,6.14,4.65,4.86,5.53,11.51,5.69,14.11v2.1h10.77v-51.28h0Z"/><path class="cls-1" d="M361.57,45.47c-10.12,0-17.68,4.75-20.77,13.03l-.83,2.23,8.68,6.39,1.49-3.88c1.96-5.12,5.6-7.5,11.43-7.5s9.06,2.81,9.06,8.34v1.3l-11.15,1.97c-13.07,2.31-19.7,7.9-19.7,16.6s6.99,14.58,17.82,14.58c5.53,0,10.62-1.54,14.48-4.35l.05,3.45h9.31v-34.09c0-11.33-7.43-18.09-19.89-18.09h0ZM370.63,75.53v4.57c0,3.39-3.9,8.17-12.57,8.17-6.4,0-7.35-2.69-7.35-4.3,0-1.43,0-4.76,11.34-6.87l8.59-1.57h0Z"/></svg>